<svg width="111" height="42" viewBox="0 0 111 42" fill="none" xmlns="http://www.w3.org/2000/svg">
<g filter="url(#filter0_d)">
<path fill-rule="evenodd" clip-rule="evenodd" d="M55.2057 35C78.4016 35 97.2057 27.8366 97.2057 19C97.2057 10.1634 78.4016 3 55.2057 3C32.0097 3 13.2057 10.1634 13.2057 19C13.2057 24.2183 19.7633 28.8532 29.9106 31.7739L22.4702 34.6028C22.4702 34.6028 24.7739 35.7547 28.5175 34.356L27.1188 35.1376C27.1188 35.1376 29.834 35.7547 32.1377 35.1376L35.8755 33.2084C41.6616 34.3531 48.2353 35 55.2057 35Z" fill="url(#paint0_linear)"/>
</g>
<path d="M51.1894 28.6708L50.6414 31.4849H49.9385L50.4865 28.6708H49.4023L49.5072 28.1275H52.3808L52.276 28.6708H51.1894ZM52.7121 30.3506C52.7009 30.411 52.6954 30.4817 52.6954 30.5627C52.6954 30.7311 52.7319 30.8606 52.805 30.9511C52.8796 31.0401 52.9893 31.0846 53.1338 31.0846C53.3673 31.0846 53.5365 30.9503 53.6414 30.6819L54.2251 30.8582C54.106 31.1108 53.9583 31.2863 53.7819 31.3848C53.6056 31.4833 53.3745 31.5325 53.0885 31.5325C52.7502 31.5325 52.4857 31.4412 52.2951 31.2585C52.1044 31.0742 52.0091 30.8177 52.0091 30.4888C52.0091 30.16 52.0663 29.8725 52.1807 29.6263C52.2951 29.3785 52.4571 29.1886 52.6668 29.0568C52.8781 28.9249 53.1219 28.859 53.3983 28.859C53.7303 28.859 53.9861 28.9448 54.1656 29.1163C54.3467 29.2863 54.4372 29.527 54.4372 29.8383C54.4372 29.9956 54.4182 30.1664 54.38 30.3506H52.7121ZM53.8177 29.9051L53.8248 29.7716C53.8248 29.6016 53.7851 29.4777 53.7057 29.3999C53.6279 29.3221 53.5254 29.2831 53.3983 29.2831C53.2458 29.2831 53.1171 29.3364 53.0123 29.4428C52.909 29.5476 52.8352 29.7017 52.7907 29.9051H53.8177ZM55.8526 31.0726C55.9845 31.0726 56.0933 31.0313 56.1791 30.9487C56.2648 30.8645 56.3331 30.7406 56.384 30.577L57.0297 30.6962C56.8597 31.2537 56.4547 31.5325 55.8145 31.5325C55.465 31.5325 55.1957 31.4436 55.0067 31.2656C54.8193 31.0861 54.7255 30.8375 54.7255 30.5198C54.7255 30.2101 54.7883 29.9194 54.9138 29.6477C55.0393 29.3761 55.2061 29.1767 55.4142 29.0496C55.6239 28.9225 55.8844 28.859 56.1957 28.859C56.496 28.859 56.7358 28.9353 56.9153 29.0878C57.0948 29.2387 57.1957 29.4491 57.218 29.7192L56.5412 29.774C56.5238 29.4706 56.3911 29.3189 56.1433 29.3189C55.9733 29.3189 55.8399 29.3777 55.743 29.4952C55.6477 29.6112 55.5611 29.8177 55.4833 30.1147C55.4467 30.2974 55.4285 30.4309 55.4285 30.5151C55.4285 30.8868 55.5698 31.0726 55.8526 31.0726ZM58.7239 27.9488L58.5357 28.9138L58.4427 29.3475H58.4499C58.569 29.1823 58.7001 29.06 58.843 28.9805C58.9876 28.9011 59.1528 28.8614 59.3387 28.8614C59.5801 28.8614 59.762 28.9194 59.8843 29.0353C60.0066 29.1513 60.0678 29.3189 60.0678 29.5381C60.0678 29.5778 60.0622 29.6414 60.0511 29.7287C60.04 29.8145 60.0289 29.8812 60.0178 29.9289L59.7151 31.4849H59.0503L59.3315 30.0671C59.3728 29.8701 59.3935 29.7391 59.3935 29.6739C59.3935 29.469 59.2727 29.3665 59.0313 29.3665C58.8708 29.3665 58.7223 29.4317 58.5857 29.5619C58.4491 29.6922 58.3633 29.8518 58.3283 30.0409L58.0472 31.4849H57.3752L58.0567 27.9488H58.7239ZM62.0336 31.4849L62.3148 30.0671C62.3561 29.8701 62.3767 29.7391 62.3767 29.6739C62.3767 29.469 62.256 29.3665 62.0146 29.3665C61.8541 29.3665 61.7056 29.4317 61.569 29.5619C61.4324 29.6922 61.3466 29.8518 61.3116 30.0409L61.0305 31.4849H60.3585L60.7541 29.4571C60.7795 29.3316 60.8096 29.1481 60.8446 28.9067H61.4832C61.4832 28.921 61.4752 28.9877 61.4594 29.1068C61.4451 29.226 61.4339 29.3062 61.426 29.3475H61.4332C61.5523 29.1823 61.6833 29.06 61.8263 28.9805C61.9709 28.9011 62.1361 28.8614 62.3219 28.8614C62.5634 28.8614 62.7453 28.9194 62.8676 29.0353C62.9899 29.1513 63.0511 29.3189 63.0511 29.5381C63.0511 29.5778 63.0455 29.6414 63.0344 29.7287C63.0233 29.8145 63.0122 29.8812 63.001 29.9289L62.6984 31.4849H62.0336ZM66.082 29.8574C66.082 30.1862 66.0169 30.4785 65.8866 30.7343C65.758 30.99 65.5745 31.187 65.3362 31.3252C65.0995 31.4634 64.8318 31.5325 64.5332 31.5325C64.1869 31.5325 63.9129 31.4396 63.7111 31.2537C63.5094 31.0663 63.4085 30.8105 63.4085 30.4865C63.4085 30.1672 63.4713 29.8844 63.5967 29.6382C63.7238 29.392 63.9041 29.2013 64.1376 29.0663C64.3712 28.9297 64.6372 28.8614 64.9359 28.8614C65.3092 28.8614 65.5935 28.9488 65.7889 29.1235C65.9843 29.2966 66.082 29.5413 66.082 29.8574ZM65.3815 29.9074C65.3815 29.5151 65.2163 29.3189 64.8858 29.3189C64.7048 29.3189 64.5602 29.3665 64.4522 29.4619C64.3457 29.5572 64.2623 29.7025 64.202 29.8979C64.1416 30.0917 64.1114 30.2784 64.1114 30.4579C64.1114 30.8693 64.2766 31.075 64.6071 31.075C64.785 31.075 64.9256 31.0305 65.0288 30.9416C65.1337 30.851 65.2155 30.7144 65.2742 30.5317C65.3346 30.3491 65.3704 30.141 65.3815 29.9074ZM66.3251 31.4849L67.0113 27.9488H67.6809L66.9923 31.4849H66.3251ZM70.4235 29.8574C70.4235 30.1862 70.3584 30.4785 70.2281 30.7343C70.0994 30.99 69.916 31.187 69.6777 31.3252C69.441 31.4634 69.1733 31.5325 68.8747 31.5325C68.5284 31.5325 68.2543 31.4396 68.0526 31.2537C67.8509 31.0663 67.75 30.8105 67.75 30.4865C67.75 30.1672 67.8127 29.8844 67.9382 29.6382C68.0653 29.392 68.2456 29.2013 68.4791 29.0663C68.7126 28.9297 68.9787 28.8614 69.2774 28.8614C69.6507 28.8614 69.935 28.9488 70.1304 29.1235C70.3258 29.2966 70.4235 29.5413 70.4235 29.8574ZM69.723 29.9074C69.723 29.5151 69.5577 29.3189 69.2273 29.3189C69.0462 29.3189 68.9017 29.3665 68.7937 29.4619C68.6872 29.5572 68.6038 29.7025 68.5435 29.8979C68.4831 30.0917 68.4529 30.2784 68.4529 30.4579C68.4529 30.8693 68.6181 31.075 68.9485 31.075C69.1265 31.075 69.267 31.0305 69.3703 30.9416C69.4751 30.851 69.557 30.7144 69.6157 30.5317C69.6761 30.3491 69.7118 30.141 69.723 29.9074ZM71.6101 32.4976C71.294 32.4976 71.051 32.4428 70.881 32.3331C70.711 32.2235 70.6062 32.0536 70.5665 31.8232L71.2408 31.7517C71.2837 31.9535 71.433 32.0544 71.6888 32.0544C71.8635 32.0544 71.9993 32.0075 72.0962 31.9138C72.1931 31.82 72.2686 31.6556 72.3226 31.4205C72.3544 31.268 72.379 31.1298 72.3965 31.0059H72.3917C72.2916 31.1473 72.2035 31.249 72.1272 31.3109C72.0526 31.3729 71.9676 31.4205 71.8723 31.4539C71.7785 31.4872 71.6705 31.5039 71.5482 31.5039C71.302 31.5039 71.105 31.4245 70.9573 31.2656C70.8111 31.1068 70.738 30.8971 70.738 30.6366C70.738 30.3173 70.7881 30.0115 70.8882 29.7192C70.9898 29.4253 71.1288 29.2093 71.3051 29.0711C71.4831 28.9313 71.7078 28.8614 71.9795 28.8614C72.1669 28.8614 72.3282 28.9059 72.4632 28.9948C72.5982 29.0838 72.6872 29.2045 72.7301 29.357H72.7348C72.7444 29.3109 72.7634 29.2275 72.792 29.1068C72.8222 28.9861 72.8413 28.9194 72.8492 28.9067H73.4807L73.4354 29.1044L73.3639 29.4523L72.9707 31.461C72.8961 31.8312 72.7515 32.0965 72.5371 32.2569C72.3226 32.4173 72.0136 32.4976 71.6101 32.4976ZM72.599 29.8503C72.599 29.685 72.5577 29.5556 72.4751 29.4619C72.3925 29.3665 72.2765 29.3189 72.1272 29.3189C72.0065 29.3189 71.9064 29.3443 71.827 29.3951C71.7491 29.446 71.6824 29.5286 71.6268 29.6429C71.5728 29.7557 71.5275 29.9051 71.491 30.0909C71.4561 30.2752 71.4386 30.4253 71.4386 30.5413C71.4386 30.8574 71.576 31.0154 71.8508 31.0154C71.9922 31.0154 72.1209 30.9622 72.2368 30.8558C72.3528 30.7494 72.4417 30.6048 72.5037 30.4221C72.5672 30.2379 72.599 30.0472 72.599 29.8503ZM74.2384 28.442L74.3361 27.9488H75.0057L74.908 28.442H74.2384ZM73.6498 31.4849L74.1502 28.9067H74.8198L74.317 31.4849H73.6498ZM75.7777 30.3506C75.7666 30.411 75.761 30.4817 75.761 30.5627C75.761 30.7311 75.7975 30.8606 75.8706 30.9511C75.9453 31.0401 76.0549 31.0846 76.1994 31.0846C76.433 31.0846 76.6021 30.9503 76.707 30.6819L77.2908 30.8582C77.1716 31.1108 77.0239 31.2863 76.8476 31.3848C76.6712 31.4833 76.4401 31.5325 76.1542 31.5325C75.8158 31.5325 75.5513 31.4412 75.3607 31.2585C75.1701 31.0742 75.0748 30.8177 75.0748 30.4888C75.0748 30.16 75.1319 29.8725 75.2463 29.6263C75.3607 29.3785 75.5227 29.1886 75.7324 29.0568C75.9437 28.9249 76.1875 28.859 76.4639 28.859C76.7959 28.859 77.0517 28.9448 77.2312 29.1163C77.4123 29.2863 77.5028 29.527 77.5028 29.8383C77.5028 29.9956 77.4838 30.1664 77.4457 30.3506H75.7777ZM76.8833 29.9051L76.8905 29.7716C76.8905 29.6016 76.8507 29.4777 76.7713 29.3999C76.6935 29.3221 76.591 29.2831 76.4639 29.2831C76.3114 29.2831 76.1828 29.3364 76.0779 29.4428C75.9747 29.5476 75.9008 29.7017 75.8563 29.9051H76.8833ZM80.0239 30.689C80.0239 30.9654 79.9214 31.1751 79.7165 31.3181C79.5131 31.461 79.2161 31.5325 78.8253 31.5325C78.506 31.5325 78.2542 31.4761 78.07 31.3633C77.8857 31.2506 77.761 31.0758 77.6958 30.8391L78.2939 30.7533C78.3273 30.8725 78.3885 30.9583 78.4774 31.0107C78.5664 31.0631 78.6982 31.0893 78.873 31.0893C79.0461 31.0893 79.1772 31.0615 79.2661 31.0059C79.3567 30.9503 79.4019 30.8701 79.4019 30.7653C79.4019 30.6826 79.3686 30.6199 79.3019 30.577C79.2367 30.5325 79.0922 30.4865 78.8682 30.4388C78.5521 30.3673 78.3289 30.2688 78.1986 30.1433C78.07 30.0163 78.0056 29.8526 78.0056 29.6525C78.0056 29.3983 78.1049 29.2037 78.3035 29.0687C78.5036 28.9337 78.7888 28.8662 79.1589 28.8662C79.4861 28.8662 79.73 28.9225 79.8904 29.0353C80.0509 29.1465 80.1501 29.3189 80.1883 29.5524L79.5902 29.6215C79.5632 29.5119 79.5108 29.4325 79.4329 29.3832C79.3551 29.334 79.2486 29.3094 79.1136 29.3094C78.788 29.3094 78.6251 29.4047 78.6251 29.5953C78.6251 29.6477 78.641 29.6914 78.6728 29.7263C78.7046 29.7613 78.7498 29.7915 78.8086 29.8169C78.8674 29.8423 79.0088 29.8812 79.2328 29.9337C79.5219 29.9988 79.726 30.0917 79.8451 30.2124C79.9643 30.3332 80.0239 30.492 80.0239 30.689Z" fill="#1E1A1A"/>
<path fill-rule="evenodd" clip-rule="evenodd" d="M52.0076 5.97034H37.4857L31.2327 30.9415C44.109 26.8687 43.2451 22.6315 43.2451 22.6315C43.2451 22.6315 43.5742 21.3973 41.8876 19.4638C41.8876 19.4638 39.5838 17.5714 40.242 15.3499C40.242 15.3499 40.242 11.0715 52.0076 5.97034ZM44.397 15.5968C46.166 12.6348 51.8019 10.0842 51.8019 10.0842L46.166 31.8054H38.5965C38.5965 31.8054 41.6819 29.8718 44.397 27.3213C46.7419 25.2232 46.4951 23.6188 46.4951 23.6188C46.4951 23.6188 46.4951 22.2612 44.6438 20.3277C42.011 17.8182 44.397 15.5968 44.397 15.5968ZM30.3687 31.5997L22.4702 34.6028C22.4702 34.6028 24.7739 35.7547 28.5175 34.356L27.1188 35.1376C27.1188 35.1376 29.834 35.7547 32.1377 35.1376L38.5142 31.8465L30.3687 31.5997Z" fill="url(#paint1_linear)"/>
<g filter="url(#filter1_i)">
<path fill-rule="evenodd" clip-rule="evenodd" d="M31.9299 18.5618H21.1072L21.8991 15.7241H29.6862C29.6862 15.7241 30.0821 12.0286 26.4526 11.9626C26.4526 11.9626 23.0209 11.4346 20.7442 16.5161C20.7442 16.5161 18.3355 23.4123 23.2189 23.4123C23.2189 23.4123 26.4526 23.4123 28.9273 19.8817L31.27 21.7295C31.27 21.7295 27.3435 26.5799 23.0209 26.4809C23.0209 26.4809 15.5638 26.9099 16.8506 18.8258C16.8506 18.8258 18.4675 8.89392 26.6505 8.72894C26.6505 8.72894 34.8006 8.06903 31.9299 18.5618ZM58.3929 9.58685H55.0603L52.2226 20.2446C51.0677 25.2601 54.7186 26.5212 56.477 26.6713C62.8279 27.2135 64.7942 20.2446 64.7942 20.2446L67.8299 9.58685H64.7942L61.5606 20.2446C60.3067 23.6432 57.2381 23.6432 57.2381 23.6432C54.6973 23.4783 55.5882 20.2446 55.5882 20.2446L58.3929 9.58685ZM70.4035 9.55382H73.7692L73.5052 10.2798C75.419 8.79492 77.6297 8.79492 77.6297 8.79492C79.8075 8.79492 80.6324 11.2367 80.6324 11.2367C82.8432 8.49797 86.6707 8.79492 86.6707 8.79492C91.0262 9.55382 89.5084 14.1403 89.5084 14.1403L86.6707 25.92H83.2391L86.0768 15.4932C86.9677 12.5895 85.1859 12.2925 85.1859 12.2925C82.3812 11.7976 80.6324 15.7241 80.6324 15.7241L78.0917 25.92H74.5611L77.4318 15.7241C78.5206 12.1276 76.6398 12.1276 76.6398 12.1276C73.5052 11.9626 71.9874 15.4932 71.9874 15.4932L69.2817 25.92H65.8171L70.4035 9.55382Z" fill="url(#paint2_linear)"/>
</g>
<defs>
<filter id="filter0_d" x="11.2057" y="3" width="88" height="38.4118" filterUnits="userSpaceOnUse" color-interpolation-filters="sRGB">
<feFlood flood-opacity="0" result="BackgroundImageFix"/>
<feColorMatrix in="SourceAlpha" type="matrix" values="0 0 0 0 0 0 0 0 0 0 0 0 0 0 0 0 0 0 127 0"/>
<feOffset dy="4"/>
<feGaussianBlur stdDeviation="1"/>
<feColorMatrix type="matrix" values="0 0 0 0 0 0 0 0 0 0 0 0 0 0 0 0 0 0 0.25 0"/>
<feBlend mode="normal" in2="BackgroundImageFix" result="effect1_dropShadow"/>
<feBlend mode="normal" in="SourceGraphic" in2="effect1_dropShadow" result="shape"/>
</filter>
<filter id="filter1_i" x="16.7014" y="8.7207" width="73.063" height="20.9807" filterUnits="userSpaceOnUse" color-interpolation-filters="sRGB">
<feFlood flood-opacity="0" result="BackgroundImageFix"/>
<feBlend mode="normal" in="SourceGraphic" in2="BackgroundImageFix" result="shape"/>
<feColorMatrix in="SourceAlpha" type="matrix" values="0 0 0 0 0 0 0 0 0 0 0 0 0 0 0 0 0 0 127 0" result="hardAlpha"/>
<feOffset dy="4"/>
<feGaussianBlur stdDeviation="1.5"/>
<feComposite in2="hardAlpha" operator="arithmetic" k2="-1" k3="1"/>
<feColorMatrix type="matrix" values="0 0 0 0 0 0 0 0 0 0 0 0 0 0 0 0 0 0 0.25 0"/>
<feBlend mode="normal" in2="shape" result="effect1_innerShadow"/>
</filter>
<linearGradient id="paint0_linear" x1="13.2057" y1="19.2059" x2="97.2057" y2="19.2059" gradientUnits="userSpaceOnUse">
<stop stop-color="#A7A496"/>
<stop offset="0.333333" stop-color="#F2F2F2"/>
<stop offset="0.666667" stop-color="#C4C4C4"/>
<stop offset="1" stop-color="#EAEAEA"/>
</linearGradient>
<linearGradient id="paint1_linear" x1="22.4702" y1="20.6911" x2="52.0076" y2="20.6911" gradientUnits="userSpaceOnUse">
<stop stop-color="#DC2424"/>
<stop offset="1" stop-color="#4A569D"/>
</linearGradient>
<linearGradient id="paint2_linear" x1="16.7014" y1="17.7111" x2="89.7644" y2="17.7111" gradientUnits="userSpaceOnUse">
<stop stop-color="#164F9B"/>
<stop offset="0.682292" stop-color="#3E8CF5"/>
<stop offset="1" stop-color="#2D9EE0"/>
</linearGradient>
</defs>
</svg>
